<?xml version="1.0" encoding="UTF-8" standalone="no"?><!DOCTYPE svg PUBLIC "-//W3C//DTD SVG 1.1//EN" "http://www.w3.org/Graphics/SVG/1.1/DTD/svg11.dtd"><svg width="100%" height="100%" viewBox="0 0 613 613" version="1.1" xmlns="http://www.w3.org/2000/svg" xmlns:xlink="http://www.w3.org/1999/xlink" xml:space="preserve" xmlns:serif="http://www.serif.com/" style="fill-rule:evenodd;clip-rule:evenodd;stroke-linejoin:round;stroke-miterlimit:2;"><g><g><g><g><g><path d="M443.825,71.489l0,-0.019c0,-18.528 -15.255,-33.802 -33.802,-33.802c-18.547,0 -33.802,15.255 -33.802,33.802c0,18.662 33.802,81.672 33.802,81.672c0,0 33.802,-63.01 33.802,-81.672l0,0.019Zm-49.956,0c0,-0.191 -0.019,-0.383 -0.019,-0.574c0,-8.862 7.292,-16.154 16.154,-16.154c8.862,0 16.154,7.292 16.154,16.154l0,0.555c-0.287,8.651 -7.484,15.599 -16.154,15.599c-8.632,0 -15.829,-6.929 -16.135,-15.58m90.017,282.511c-10.719,-0 -20.997,0.9 -30.433,2.354l-240.996,-88.849c3.828,-3.445 5.972,-7.273 5.972,-11.293c-0.038,-2.125 -0.632,-4.192 -1.684,-6.029l160.97,-42.836c8.805,2.622 19.581,4.211 31.505,4.211c29.093,0 52.636,-9.264 52.636,-20.71c0,-11.484 -23.543,-20.729 -52.636,-20.729c-29.093,0 -52.636,9.283 -52.636,20.729c0.019,1.34 0.364,2.622 1.034,3.866l-168.205,38.797c-14.106,-4 -28.691,-5.953 -43.353,-5.8c-39.946,0 -72.35,12.767 -72.35,28.519c0,15.752 32.405,28.519 72.35,28.519c10.987,0 21.246,-1.053 30.586,-2.775l229.492,93.137c-3.637,3.675 -5.857,7.656 -5.857,11.924c0,3.637 1.837,6.967 4.517,10.202l-238.373,89.213c-3.005,-0.115 -6.048,-0.172 -9.13,-0.191c-62.015,0 -112.354,19.829 -112.354,44.214c-0,24.442 50.339,44.272 112.354,44.272c62.015,0 112.354,-19.791 112.354,-44.252c0,-4.211 -1.589,-8.269 -4.402,-12.116l196.494,-99.798c7.082,0.766 14.413,1.244 22.107,1.244c46.186,0 83.643,-14.738 83.643,-32.979c0,-18.068 -37.458,-32.845 -83.643,-32.845l0.038,0Z" style="fill:#caaf6f;fill-rule:nonzero;"/></g></g></g></g></g></svg>