<?xml version="1.0" encoding="UTF-8" standalone="no"?>
<!DOCTYPE svg PUBLIC "-//W3C//DTD SVG 1.1//EN" "http://www.w3.org/Graphics/SVG/1.1/DTD/svg11.dtd">
<svg width="100%" height="100%" viewBox="0 0 1280 1280" version="1.1" xmlns="http://www.w3.org/2000/svg" xmlns:xlink="http://www.w3.org/1999/xlink" xml:space="preserve" xmlns:serif="http://www.serif.com/" style="fill-rule:evenodd;clip-rule:evenodd;stroke-linejoin:round;stroke-miterlimit:2;">
    <g>
        <path d="M669.592,1236.571L668.955,1236.679L665.18,1238.541L664.118,1238.753L663.372,1238.541L659.597,1236.629C659.03,1236.487 658.605,1236.591 658.322,1236.95L658.11,1237.483L657.206,1260.237L657.473,1261.299L658.006,1261.991L663.535,1265.924L664.331,1266.136L664.969,1265.924L670.498,1261.991L671.136,1261.141L671.348,1260.237L670.444,1237.533C670.302,1236.966 670.019,1236.645 669.594,1236.575M683.632,1230.567L682.886,1230.675L673.103,1235.621L672.57,1236.154L672.412,1236.737L673.37,1259.599L673.637,1260.237L674.062,1260.662L684.75,1265.554C685.425,1265.733 685.938,1265.592 686.292,1265.129L686.504,1264.383L684.696,1231.737C684.517,1231.062 684.163,1230.675 683.634,1230.566M645.617,1230.674C645.134,1230.382 644.496,1230.524 644.179,1230.995L643.858,1231.741L642.05,1264.387C642.088,1265.025 642.387,1265.449 642.954,1265.662L643.75,1265.554L654.437,1260.608L654.97,1260.183L655.128,1259.6L656.086,1236.738L655.928,1236.1L655.395,1235.567L645.612,1230.675L645.616,1230.675L645.617,1230.674Z" style="fill:none;fill-rule:nonzero;"/>
        <g transform="matrix(45.869265,0,0,45.869265,43.699553,181.307921)">
            <path d="M7.175,6.825C6.392,6.042 6,5.1 6,4C6,2.9 6.392,1.958 7.175,1.175C7.958,0.392 8.9,0 10,0C11.1,0 12.042,0.392 12.825,1.175C13.608,1.958 14,2.9 14,4C14,5.1 13.608,6.042 12.825,6.825C12.042,7.608 11.1,8 10,8C8.9,8 7.958,7.608 7.175,6.825M16,8C15.817,8 15.583,7.979 15.3,7.938C15.017,7.897 14.783,7.851 14.6,7.8C15.05,7.267 15.396,6.675 15.638,6.025C15.88,5.375 16.001,4.7 16,4C15.999,3.3 15.878,2.625 15.637,1.975C15.396,1.325 15.05,0.733 14.6,0.2C14.833,0.117 15.067,0.062 15.3,0.037C15.533,0.012 15.767,-0.001 16,0C17.1,0 18.042,0.392 18.825,1.175C19.608,1.958 20,2.9 20,4C20,5.1 19.608,6.042 18.825,6.825C18.042,7.608 17.1,8 16,8M19,20C17.617,20 16.438,19.512 15.463,18.537C14.488,17.562 14.001,16.383 14,15C14,13.6 14.488,12.417 15.463,11.45C16.438,10.483 17.617,10 19,10C20.4,10 21.583,10.483 22.55,11.45C23.517,12.417 24,13.6 24,15C24,16.383 23.517,17.563 22.55,18.538C21.583,19.513 20.4,20.001 19,20M18.3,17.25L21.825,13.7L21.125,13L18.3,15.825L16.875,14.4L16.175,15.125L18.3,17.25ZM2,16L2,13.2C2,12.633 2.146,12.113 2.438,11.638C2.73,11.163 3.117,10.801 3.6,10.55C4.633,10.033 5.683,9.646 6.75,9.388C7.817,9.13 8.9,9.001 10,9C10.75,9 11.492,9.058 12.225,9.175C12.958,9.292 13.692,9.475 14.425,9.725C13.525,10.508 12.875,11.454 12.475,12.563C12.075,13.672 11.942,14.817 12.075,16L2,16Z" style="fill:rgb(201,175,111);fill-rule:nonzero;"/>
        </g>
    </g>
</svg>
