<?xml version="1.0" encoding="UTF-8" standalone="no"?><!DOCTYPE svg PUBLIC "-//W3C//DTD SVG 1.1//EN" "http://www.w3.org/Graphics/SVG/1.1/DTD/svg11.dtd"><svg width="100%" height="100%" viewBox="0 0 1280 1280" version="1.1" xmlns="http://www.w3.org/2000/svg" xmlns:xlink="http://www.w3.org/1999/xlink" xml:space="preserve" xmlns:serif="http://www.serif.com/" style="fill-rule:evenodd;clip-rule:evenodd;stroke-linejoin:round;stroke-miterlimit:2;"><g><path d="M669.592,1236.571l-0.637,0.108l-3.775,1.862l-1.062,0.212l-0.746,-0.212l-3.775,-1.912c-0.567,-0.142 -0.992,-0.038 -1.275,0.321l-0.212,0.533l-0.904,22.754l0.267,1.062l0.533,0.692l5.529,3.933l0.796,0.212l0.638,-0.212l5.529,-3.933l0.638,-0.85l0.212,-0.904l-0.904,-22.704c-0.142,-0.567 -0.425,-0.888 -0.85,-0.958m14.038,-6.008l-0.746,0.108l-9.783,4.946l-0.533,0.533l-0.158,0.583l0.958,22.862l0.267,0.638l0.425,0.425l10.688,4.892c0.675,0.179 1.188,0.038 1.542,-0.425l0.212,-0.746l-1.808,-32.646c-0.179,-0.675 -0.533,-1.062 -1.062,-1.171m-38.017,0.108c-0.483,-0.292 -1.121,-0.15 -1.438,0.321l-0.321,0.746l-1.808,32.646c0.038,0.638 0.337,1.062 0.904,1.275l0.796,-0.108l10.687,-4.946l0.533,-0.425l0.158,-0.583l0.958,-22.862l-0.158,-0.638l-0.533,-0.533l-9.783,-4.892l0.004,0Z" style="fill:none;fill-rule:nonzero;"/><path d="M599.818,162.631c-239.83,0.021 -437.168,197.376 -437.168,437.206c0,239.844 197.362,437.206 437.206,437.206c91.903,0 181.507,-28.977 256.006,-82.791c0,0 104.264,104.264 145.647,145.647c9.188,9.188 24.085,9.188 33.273,0c18.131,-18.131 46.968,-46.968 65.099,-65.099c9.188,-9.188 9.188,-24.085 -0,-33.273c-41.382,-41.382 -145.647,-145.647 -145.647,-145.647c53.831,-74.507 82.818,-164.125 82.818,-256.044c0,-239.844 -197.362,-437.206 -437.206,-437.206c-0.009,0 -0.018,0 -0.027,0m-238.874,198.333c63.543,-65.04 150.728,-101.75 241.656,-101.75c185.334,0 337.841,152.507 337.841,337.841c0,90.928 -36.709,178.113 -101.75,241.656c-63.094,61.641 -147.885,96.185 -236.091,96.185c-185.334,0 -337.841,-152.507 -337.841,-337.841c0,-88.207 34.545,-172.998 96.185,-236.091" style="fill:#caaf6f;stroke:#caaf6f;stroke-width:4.17px;"/><g id="nosto"><path d="M598.606,729.553c80.399,0 146.557,-66.158 146.557,-146.557c0,-80.399 -66.158,-146.557 -146.557,-146.557c-80.399,0 -146.557,66.158 -146.557,146.557c0,80.399 66.158,146.557 146.557,146.557Z" style="fill:none;fill-rule:nonzero;stroke:#caaf6f;stroke-width:27.48px;stroke-linecap:round;stroke-linejoin:miter;stroke-miterlimit:4;"/><path d="M631.05,550.112c-3.957,-16.707 -24.109,-31.785 -48.309,-20.518c-24.2,11.303 -28.047,47.594 8.555,51.441c16.543,1.74 27.333,-2.015 37.189,8.629c9.893,10.644 11.725,40.267 -13.52,48.254c-25.244,7.987 -50.232,-4.488 -52.962,-22.203m36.346,-105.924l0,15.938m0,114.644l0,15.975" style="fill:none;fill-rule:nonzero;stroke:#caaf6f;stroke-width:27.48px;stroke-linecap:round;stroke-miterlimit:4;"/></g></g></svg>