<?xml version="1.0" encoding="UTF-8" standalone="no"?>
<!DOCTYPE svg PUBLIC "-//W3C//DTD SVG 1.1//EN" "http://www.w3.org/Graphics/SVG/1.1/DTD/svg11.dtd">
<svg width="100%" height="100%" viewBox="0 0 147 147" version="1.1" xmlns="http://www.w3.org/2000/svg" xmlns:xlink="http://www.w3.org/1999/xlink" xml:space="preserve" xmlns:serif="http://www.serif.com/" style="fill-rule:evenodd;clip-rule:evenodd;stroke-linejoin:round;stroke-miterlimit:2;">
    <g transform="matrix(1,0,0,1,-243.589474,-482.28988)">
        <g transform="matrix(1,0,0,1,0,63.465214)">
            <g transform="matrix(0.574209,0,0,0.574209,317.088258,492.32345)">
                <g transform="matrix(1,0,0,1,-128,-128)">
                    <g transform="matrix(8,0,0,8,0,0)">
                        <path d="M23.188,3.735C23.188,3.735 23.188,3.735 23.188,3.734C23.188,2.766 22.391,1.968 21.422,1.968C20.453,1.968 19.656,2.765 19.656,3.734C19.656,4.709 21.422,8.001 21.422,8.001C21.422,8.001 23.188,4.709 23.188,3.734L23.188,3.735ZM20.578,3.735C20.578,3.725 20.577,3.715 20.577,3.705C20.577,3.242 20.958,2.861 21.421,2.861C21.884,2.861 22.265,3.242 22.265,3.705C22.265,3.715 22.265,3.724 22.265,3.734C22.25,4.186 21.874,4.549 21.421,4.549C20.97,4.549 20.594,4.187 20.578,3.735M25.281,18.495C24.721,18.495 24.184,18.542 23.691,18.618L11.1,13.976C11.3,13.796 11.412,13.596 11.412,13.386C11.41,13.275 11.379,13.167 11.324,13.071L19.734,10.833C20.194,10.97 20.757,11.053 21.38,11.053C22.9,11.053 24.13,10.569 24.13,9.971C24.13,9.371 22.9,8.888 21.38,8.888C19.86,8.888 18.63,9.373 18.63,9.971C18.631,10.041 18.649,10.108 18.684,10.173L9.896,12.2C9.159,11.991 8.397,11.889 7.631,11.897C5.544,11.897 3.851,12.564 3.851,13.387C3.851,14.21 5.544,14.877 7.631,14.877C8.205,14.877 8.741,14.822 9.229,14.732L21.219,19.598C21.029,19.79 20.913,19.998 20.913,20.221C20.913,20.411 21.009,20.585 21.149,20.754L8.695,25.415C8.538,25.409 8.379,25.406 8.218,25.405C4.978,25.405 2.348,26.441 2.348,27.715C2.348,28.992 4.978,30.028 8.218,30.028C11.458,30.028 14.088,28.994 14.088,27.716C14.088,27.496 14.005,27.284 13.858,27.083L24.124,21.869C24.494,21.909 24.877,21.934 25.279,21.934C27.692,21.934 29.649,21.164 29.649,20.211C29.649,19.267 27.692,18.495 25.279,18.495L25.281,18.495Z" style="fill:rgb(202,175,111);fill-rule:nonzero;"/>
                    </g>
                </g>
            </g>
        </g>
    </g>
</svg>
