<?xml version="1.0" encoding="UTF-8" standalone="no"?><!DOCTYPE svg PUBLIC "-//W3C//DTD SVG 1.1//EN" "http://www.w3.org/Graphics/SVG/1.1/DTD/svg11.dtd"><svg width="100%" height="100%" viewBox="0 0 307 307" version="1.1" xmlns="http://www.w3.org/2000/svg" xmlns:xlink="http://www.w3.org/1999/xlink" xml:space="preserve" xmlns:serif="http://www.serif.com/" style="fill-rule:evenodd;clip-rule:evenodd;stroke-linejoin:round;stroke-miterlimit:2;"><path d="M105.272,19.14c-5.249,0.001 -9.568,4.321 -9.568,9.57c0,0.781 0.096,1.558 0.284,2.316l1.818,7.254l-30.816,0c-5.25,0 -9.57,4.32 -9.57,9.57l0,229.684c0,5.25 4.32,9.57 9.57,9.57l172.263,0c5.25,0 9.57,-4.32 9.57,-9.57l0,-229.684c0,-5.25 -4.32,-9.57 -9.57,-9.57l-30.816,0l1.818,-7.254c0.189,-0.757 0.284,-1.535 0.284,-2.316c0,-5.249 -4.318,-9.569 -9.568,-9.57l-95.702,0Zm12.25,19.14l71.202,0l-4.785,19.14l-61.632,0l-4.785,-19.14Zm45.171,86.131l0,9.57l-66.991,0l0,19.14l66.991,0l0,9.57l19.14,0l0,-9.57l28.71,0l0,-19.14l-28.71,0l0,-9.57l-19.14,0Zm-38.281,57.421l0,9.57l-28.71,0l0,19.14l28.71,0l0,9.57l19.14,0l0,-9.57l66.991,0l0,-19.14l-66.991,0l0,-9.57l-19.14,0Z" style="fill:#caaf6f;"/></svg>