<?xml version="1.0" encoding="UTF-8" standalone="no"?><!DOCTYPE svg PUBLIC "-//W3C//DTD SVG 1.1//EN" "http://www.w3.org/Graphics/SVG/1.1/DTD/svg11.dtd"><svg width="100%" height="100%" viewBox="0 0 307 307" version="1.1" xmlns="http://www.w3.org/2000/svg" xmlns:xlink="http://www.w3.org/1999/xlink" xml:space="preserve" xmlns:serif="http://www.serif.com/" style="fill-rule:evenodd;clip-rule:evenodd;stroke-linejoin:round;stroke-miterlimit:2;"><g><path d="M160.702,296.777l-0.153,0.026l-0.906,0.447l-0.255,0.051l-0.179,-0.051l-0.906,-0.459c-0.136,-0.034 -0.238,-0.009 -0.306,0.077l-0.051,0.128l-0.217,5.461l0.064,0.255l0.128,0.166l1.327,0.944l0.191,0.051l0.153,-0.051l1.327,-0.944l0.153,-0.204l0.051,-0.217l-0.217,-5.449c-0.034,-0.136 -0.102,-0.213 -0.204,-0.23m3.369,-1.442l-0.179,0.026l-2.348,1.187l-0.128,0.128l-0.038,0.14l0.23,5.487l0.064,0.153l0.102,0.102l2.565,1.174c0.162,0.043 0.285,0.009 0.37,-0.102l0.051,-0.179l-0.434,-7.835c-0.043,-0.162 -0.128,-0.255 -0.255,-0.281m-9.124,0.026c-0.116,-0.07 -0.269,-0.036 -0.345,0.077l-0.077,0.179l-0.434,7.835c0.009,0.153 0.081,0.255 0.217,0.306l0.191,-0.026l2.565,-1.187l0.128,-0.102l0.038,-0.14l0.23,-5.487l-0.038,-0.153l-0.128,-0.128l-2.348,-1.174Z" style="fill:none;fill-rule:nonzero;"/><path d="M127.602,267.964l114.842,0c14,0 25.52,-11.52 25.52,-25.52l0,-25.52l-140.362,0l-0,51.041Zm0,-76.561l140.362,0l0,-63.801l-140.362,0l-0,63.801Zm-25.52,-63.801l0,63.801l-63.801,0l0,-63.801l63.801,0Zm25.52,-25.52l140.362,0l0,-25.52c0,-14 -11.52,-25.52 -25.52,-25.52l-114.842,0l0,51.041Zm-25.52,-51.041l0,51.041l-63.801,0l0,-25.52c0,-14 11.52,-25.52 25.52,-25.52l38.281,0Zm0,165.883l0,51.041l-38.281,0c-14,0 -25.52,-11.52 -25.52,-25.52l0,-25.52l63.801,0Z" style="fill:#caaf6f;fill-rule:nonzero;"/></g></svg>