<?xml version="1.0" encoding="UTF-8" standalone="no"?>
<!DOCTYPE svg PUBLIC "-//W3C//DTD SVG 1.1//EN" "http://www.w3.org/Graphics/SVG/1.1/DTD/svg11.dtd">
<svg width="100%" height="100%" viewBox="0 0 1280 1280" version="1.1" xmlns="http://www.w3.org/2000/svg" xmlns:xlink="http://www.w3.org/1999/xlink" xml:space="preserve" xmlns:serif="http://www.serif.com/" style="fill-rule:evenodd;clip-rule:evenodd;stroke-linecap:round;">
    <g id="as" transform="matrix(1.053036,0,0,1.053036,7.862535,-14.546268)">
        <g id="nosto" transform="matrix(2.645484,0,0,2.645484,-1074.738087,-967.434262)">
            <path d="M743.682,562.279C733.491,491.539 671.979,436.439 598.606,436.439C518.207,436.439 452.049,502.597 452.049,582.996C452.049,663.395 518.207,729.553 598.606,729.553C615.968,729.553 632.665,726.468 648.176,720.821" style="fill:none;fill-rule:nonzero;stroke:rgb(202,175,111);stroke-width:27.48px;"/>
            <path d="M631.05,550.112C627.093,533.405 606.941,518.327 582.741,529.594C558.541,540.897 554.694,577.188 591.296,581.035C607.839,582.775 618.629,579.02 628.485,589.664C638.378,600.308 640.21,629.931 614.965,637.918C589.721,645.905 564.733,633.43 562.003,615.715M598.349,509.791L598.349,525.729M598.349,640.373L598.349,656.348" style="fill:none;fill-rule:nonzero;stroke:rgb(202,175,111);stroke-width:27.48px;stroke-linejoin:round;"/>
        </g>
        <g transform="matrix(-38.169511,-0,0,-38.169511,1324.689236,1262.118056)">
            <path d="M11,8.8L8.1,11.7C7.917,11.883 7.683,11.975 7.4,11.975C7.117,11.975 6.883,11.883 6.7,11.7C6.517,11.517 6.425,11.283 6.425,11C6.425,10.717 6.517,10.483 6.7,10.3L11.3,5.7C11.5,5.5 11.733,5.4 12,5.4C12.267,5.4 12.5,5.5 12.7,5.7L17.3,10.3C17.483,10.483 17.575,10.717 17.575,11C17.575,11.283 17.483,11.517 17.3,11.7C17.117,11.883 16.883,11.975 16.6,11.975C16.317,11.975 16.083,11.883 15.9,11.7L13,8.8L13,17C13,17.283 12.904,17.521 12.712,17.713C12.52,17.905 12.283,18.001 12,18C11.717,17.999 11.48,17.903 11.288,17.712C11.096,17.521 11,17.283 11,17L11,8.8Z" style="fill:rgb(201,175,111);fill-rule:nonzero;"/>
        </g>
    </g>
</svg>
