<?xml version="1.0" encoding="UTF-8" standalone="no"?><!DOCTYPE svg PUBLIC "-//W3C//DTD SVG 1.1//EN" "http://www.w3.org/Graphics/SVG/1.1/DTD/svg11.dtd"><svg width="100%" height="100%" viewBox="0 0 613 613" version="1.1" xmlns="http://www.w3.org/2000/svg" xmlns:xlink="http://www.w3.org/1999/xlink" xml:space="preserve" xmlns:serif="http://www.serif.com/" style="fill-rule:evenodd;clip-rule:evenodd;stroke-linejoin:round;stroke-miterlimit:2;"><g><g id="Fondo"><path d="M299.617,567.444c-67.575,0 -67.471,-0.028 -73.436,0.21c-4.414,0.176 1.4,-3.351 6.935,-8.025c3.105,-2.621 31.285,-26.414 39.35,-32.111c4.114,-2.906 -1.505,-2.098 -16.73,-2.098c-64.462,0 -65.241,0.23 -65.854,-1.501c-3.56,-10.059 -2.673,-10.24 -36.618,-128.26c-0.973,-3.384 -3.084,-5.12 0.422,-5.235c25.047,-0.815 63.844,-0.087 69.394,0.018c5.005,0.094 5.428,3.279 21.87,26.209c5.619,7.837 6.171,7.485 7.723,7.498c14.1,0.115 50.963,-0.273 55.184,0.281c6.505,0.853 -5.619,-5.615 -14.049,-11.017c-73.408,-47.043 -75.747,-46.66 -74.433,-48.174c0.054,-0.062 0.033,-0.035 74.117,-0.035c11.456,0 11.728,-1.156 22.29,3.18c131.211,53.859 130.627,56.007 147.019,58.279c6.797,0.942 45.519,6.309 82.501,23.454c34.42,15.957 29.446,73.76 -21.177,75.287c-5.422,0.164 -125.942,-0.261 -127.416,0.24c-2.009,0.683 -71.669,33.904 -77.892,36.872c-9.124,4.351 -9.098,4.912 -19.203,4.93Zm146.907,-125.499c49.677,4.221 90.493,20.416 98.82,29.302c9.562,10.204 7.106,35.933 -21.246,37.148c-9.166,0.393 -57.341,-0.599 -88.742,0.362c-4.656,0.143 1.908,-2.614 2.164,-2.721c8.014,-3.365 31.231,-14.652 31.334,-14.749c1.556,-1.455 -5.248,-15.199 -6.983,-15.162c-2.17,0.046 -154.877,74.352 -159.196,74.4c-2.37,0.026 -27.479,0.307 -29.63,0.231c-6.203,-0.218 2.346,-2.113 59.112,-50.243c10.809,-9.165 14.067,-9.399 10.822,-13.543c-7.378,-9.423 -8.123,-10.736 -10.581,-8.615c-1.463,1.262 -33.64,27.531 -34.771,28.48c-2.151,1.805 -2.517,1.583 -82.71,1.583c-8.043,0 -11.48,1.51 -12.938,-3.782c-1.92,-6.972 -25.817,-90.347 -27.108,-94.751c-0.629,-2.146 0.039,-2.457 2.28,-2.457c39.652,0.006 40.101,-0.225 41.589,1.578c3.073,3.724 21.244,31.13 23.593,31.859c3.534,1.097 168.142,-0.93 204.191,1.08Zm-41.042,-18.632c0.007,0.342 0.633,0.46 0.64,0.802c0.02,0.975 -2.259,0.64 -2.46,0.61c-8.715,-1.281 -54.377,-0.194 -60.164,-0.622c-3.114,-0.23 -54.97,-34.84 -62.999,-39.19c-0.239,-0.129 -7.416,-4.018 -1.255,-3.157c3.68,0.514 5.715,0.359 17.311,0.366c11.178,0.007 10.954,1.303 21.331,5.501c7.015,2.838 82.553,33.401 87.595,35.689Z" style="fill:#caaf6f;fill-opacity:1;"/><path d="M45.044,124.096c0,-17.041 -1.757,-29.622 7.88,-38.476c11.909,-10.943 31.051,-5.831 40.63,-6.96c3.756,-0.443 0.431,-11.176 4.268,-18.732c8.692,-17.117 23.787,-14.871 31.377,-14.871c97.603,-0.003 97.92,-0.363 104.003,2.667c16.811,8.374 14.01,27.844 14.107,29.484c0.422,7.115 33.513,-9.331 47.507,15.086c3.495,6.099 3.067,6.544 3.067,116.501c-0,25.503 3.293,46.653 -16.745,53.765c-5.233,1.858 -5.389,1.646 -184.594,1.646c-20.027,0 -42.159,3.288 -49.642,-15.76c-2.108,-5.366 -1.856,-5.546 -1.856,-124.351Zm100.715,58.067c1.429,12.073 -3.666,22.926 9.966,23.006c34.22,0.2 34.382,0.377 36.949,-1.09c5.214,-2.981 4.203,-6.282 4.318,-21.749c1.693,-0.909 1.622,-0.864 3.533,-1.436c6.287,-1.885 76.688,-22.989 78.673,-23.252c3.008,-0.399 1.674,1.803 1.674,37.888c0,46.033 0.858,47.644 -4.855,50.753c-1.893,1.03 -2.043,0.915 -185.597,0.915c-21.834,0 -28.492,2.425 -28.493,-13.91c-0.005,-74.327 -0.115,-74.79 0.989,-75.291c0.452,-0.205 69.19,19.681 82.843,24.167Zm51.327,-19.133c-0.185,-8.947 1.129,-16.842 -9.713,-16.929c-35.278,-0.284 -35.659,-0.728 -37.855,1.361c-4.25,4.042 -3.409,4.674 -3.465,16.337c-1.923,0.09 -1.887,-0.186 -33.173,-9.115c-3.85,-1.099 -30.18,-8.613 -48.048,-14.013c-4.351,-1.315 -2.903,-7.133 -2.904,-10.452c-0,-28.253 -2.255,-34.536 12.165,-34.544c15.674,-0.009 188.391,-0.113 195.93,0.001c12.84,0.194 10.878,6.209 10.849,35.564c-0.006,5.777 1.905,7.598 -3.669,9.308c-6.269,1.924 -75.794,23.259 -78.626,23.184c-0.549,-0.015 -0.942,-0.687 -1.492,-0.702Zm-16.864,-84.283c-66.448,-0 -66.649,0.09 -67.316,-0.603c-0.716,-0.744 -2.717,-15.635 8.145,-16.111c2.305,-0.101 98.625,-0.145 100.988,0.025c10.968,0.79 8.666,15.907 7.328,16.418c-1.278,0.488 -32.736,-0.01 -49.145,0.271Z" style="fill:#caaf6f;fill-opacity:1;"/><path d="M197.086,163.029c-0.142,1.537 -1.016,11.021 -0.093,19.3c-0.115,15.467 0.896,18.768 -4.318,21.749c-2.567,1.468 -2.729,1.29 -36.949,1.09c-13.632,-0.08 -8.537,-10.933 -9.966,-23.006c0.424,-2.398 0.305,-16.894 0.293,-18.364c0.057,-11.663 -0.784,-12.295 3.465,-16.337c2.196,-2.089 2.578,-1.645 37.855,-1.361c10.842,0.087 9.528,7.982 9.713,16.929Z" style="fill:#caaf6f;fill-opacity:1;"/><path d="M343.497,306.285c3.545,0.268 4.766,-0.893 4.851,1.535c0.496,14.139 0.13,14.395 -0.862,15.086c-0.47,0.328 -0.531,0.262 -32.562,0.263c-0.68,0 -8.101,0 -8.443,-0.934c-0.465,-1.27 0.034,-6.628 -0.364,-13.428c-0.162,-2.771 2.091,-2.518 2.673,-2.521c0.109,-0.001 24.542,-0 34.707,-0Z" style="fill:#caaf6f;"/><path d="M511.508,306.896c-0.65,-2.615 -3.097,-4.162 2.272,-6.567c15.126,-6.777 18.607,-16.114 21.902,-13.407c11.265,9.253 10.384,10.538 9.597,11.437c-8.552,9.761 -24.093,17.171 -26.412,18.277c-4.532,2.161 -5.223,-3.958 -7.36,-9.739Z" style="fill:#caaf6f;fill-opacity:1;"/><path d="M500.215,174.017c1.41,-7.491 1.273,-7.45 1.476,-8.075c1.187,-3.659 20.315,3.901 30.283,10.66c3.598,2.439 4.092,3.349 1.427,6.752c-6.601,8.431 -6.874,10.202 -9.427,8.328c-8.135,-5.972 -21.409,-9.749 -23.375,-10.308c-2.702,-0.769 -1.108,-1.857 -0.384,-7.358Z" style="fill:#caaf6f;"/><path d="M560.952,227.623c-8.7,1.803 -11.291,4.1 -12.785,-1.36c-5.443,-19.884 -14.685,-20.309 -8.578,-25.438c9.453,-7.94 10.018,-7.718 10.817,-7.063c4.301,3.522 17.864,31.38 14.299,33.027c-0.279,0.129 -0.278,0.062 -3.753,0.834Z" style="fill:#caaf6f;fill-opacity:1;"/><path d="M45.06,386.358c0.068,-2.337 0.599,-20.53 5.368,-28.724c1.092,-1.876 16.033,4.275 15.536,6.275c-3.255,13.111 -3.311,13.041 -3.885,26.565c-0.085,1.992 -6.51,2.246 -14.526,2.822c-3.565,0.256 -2.485,-6.61 -2.493,-6.938Z" style="fill:#caaf6f;fill-opacity:1;"/><path d="M454.729,179.914c-0.447,-0.008 -5.251,-0.088 -5.327,-1.699c-0.69,-14.547 0.112,-14.884 1.298,-15.159c0.529,-0.123 30.896,-0.255 31.476,0.08c1.65,0.954 1.693,15.793 -0.036,16.657c-0.307,0.153 -1.361,0.12 -27.411,0.12Z" style="fill:#caaf6f;"/><path d="M120.491,455.787c-0.029,0.512 0.437,10.486 -2.517,10.214c-10.977,-1.009 -20.884,-3.965 -31.463,-9.554c-3.485,-1.841 -0.779,-4.152 1.524,-8.05c3.737,-6.324 3.855,-8.251 7.676,-6.28c16.928,8.733 25.244,4.839 25.078,9.542c-0.114,3.211 -0.234,3.247 -0.297,4.127Z" style="fill:#caaf6f;fill-opacity:1;"/><path d="M76.117,323.067c4.737,-3.72 4.772,-3.582 9.982,-6.594c2.303,-1.331 3.104,0.597 8.244,10.78c2.223,4.403 -0.936,3.793 -7.226,8.78c-8.295,6.576 -7.495,7.286 -12.338,12.27c-0.815,0.839 -1.723,1.773 -12.903,-6.884c-1.469,-1.138 -3.88,-3.921 14.24,-18.351Z" style="fill:#caaf6f;fill-opacity:1;"/><path d="M73.153,439.501c-0.03,0.031 -3.441,4.564 -5.124,2.907c-9.901,-9.751 -20.964,-29.519 -17.224,-31.164c1.009,-0.444 7.44,-3.273 13.101,-4.292c3.932,-0.708 -0.637,4.7 15.625,23.026c1.882,2.121 -0.501,3.527 -6.378,9.523Z" style="fill:#caaf6f;fill-opacity:1;"/><path d="M348.27,170.017c0.247,-6.014 -0.103,-6.139 0.679,-6.699c0.935,-0.669 31.762,-0.407 32.175,-0.153c1.804,1.111 0.806,15.764 0.754,15.851c-1.105,1.822 -32.28,0.705 -32.474,0.636c-1.761,-0.627 -1.132,-9.115 -1.134,-9.635Z" style="fill:#caaf6f;"/><path d="M555.771,245.062c4.28,0.063 11.761,-0.871 11.508,2.512c-1.629,21.766 -9.222,33.549 -10.463,33.343c-0.138,-0.023 -13.167,-6.299 -13.418,-7.802c-0.362,-2.172 3.477,-1.345 6.988,-26.627c0.182,-1.312 4.94,-1.416 5.385,-1.425Z" style="fill:#caaf6f;fill-opacity:1;"/><path d="M432.655,168.996c-0.008,2.447 0.62,10.072 -1.19,10.681c-0.017,0.006 -31.34,1.189 -32.409,-0.675c-0.28,-0.487 -0.24,-14.597 -0.05,-14.971c0.946,-1.861 32.829,-1.512 33.395,-0.204c0,0 0.234,4.756 0.254,5.17Z" style="fill:#caaf6f;"/><path d="M284.31,306.285c3.582,0.182 4.957,-1.322 5.094,1.497c0.738,15.119 -0.791,15.261 -2.026,15.375c-0.227,0.021 -29.349,0.011 -29.606,0.003c-3.055,-0.093 -2.237,-6.886 -2.186,-14.362c0.022,-3.139 1.758,-2.513 28.724,-2.513Z" style="fill:#caaf6f;"/><path d="M165.935,306.285c19.303,0 22.243,-0.482 22.327,1.517c0.633,14.954 -0.681,15.217 -1.911,15.352c-0.258,0.028 -29.542,0.01 -29.606,0.009c-3.199,-0.078 -2.34,-6.761 -2.288,-14.367c0.025,-3.665 6.659,-2.507 11.477,-2.511Z" style="fill:#caaf6f;"/><path d="M421.053,306.285c27.293,-0 28.342,-0.396 28.42,1.521c0.603,14.931 -0.652,15.204 -1.88,15.346c-4.918,0.569 -27.238,0.064 -29.606,0.011c-0.221,-0.005 -2.245,0.121 -2.304,-2.09c-0.029,-1.067 -0.317,-11.718 0.038,-13.341c0.283,-1.294 4.89,-1.434 5.332,-1.448Z" style="fill:#caaf6f;"/><path d="M385.337,306.285c6.539,-0.02 13.617,-1.188 13.642,2.507c0.052,7.779 0.965,14.334 -2.413,14.374c-29.951,0.353 -31.343,0.38 -31.38,-2.136c-0.2,-13.573 -0.37,-13.89 0.66,-14.41c0.897,-0.453 4.155,-0.334 19.492,-0.334Z" style="fill:#caaf6f;"/><path d="M233.286,306.285c0.453,-0.005 5.394,-0.062 5.486,1.405c0.945,14.918 -0.19,15.158 -1.401,15.414c-0.582,0.123 -30.47,0.063 -30.625,0.038c-3.079,-0.494 -1.66,-15.935 -1.09,-16.477c0.504,-0.481 1.595,-0.379 27.63,-0.379Z" style="fill:#caaf6f;"/><path d="M132.259,306.285c0.449,-0.004 5.337,-0.049 5.429,1.422c0.93,14.847 -0.145,15.097 -1.348,15.377c-4.336,1.008 -5.64,-1.481 -23.412,1.352c-2.759,0.44 -3.253,0.34 -3.966,-2.412c-2.68,-10.354 -3.671,-13.148 -1.366,-13.731c9.561,-2.416 21.404,-1.995 24.662,-2.007Z" style="fill:#caaf6f;fill-opacity:1;"/><path d="M475.138,306.285c18.18,-0.009 19.995,-1.991 20.498,1.477c1.566,10.809 2.535,14.69 -1.137,14.96c-10.082,0.741 -26.863,0.548 -27.405,0.152c-1.139,-0.831 -1.965,-16.421 0.816,-16.56c3.614,-0.181 3.54,-0.014 7.229,-0.029Z" style="fill:#caaf6f;"/><path d="M314.569,168.996c0.244,-4.958 -0.111,-5.132 0.689,-5.69c0.916,-0.639 14.705,-0.315 14.931,-0.267c2.601,0.552 1.192,15.978 1.044,16.15c-1.117,1.302 -14.8,0.718 -15.5,0.476c-1.77,-0.612 -1.156,-8.276 -1.164,-10.669Z" style="fill:#caaf6f;"/><path d="M142.464,466.369c-3.229,-0.279 -4.698,0.838 -4.795,-2.464c-0.416,-14.205 0.791,-14.37 1.704,-14.471c0.394,-0.043 13,-0.023 13.32,-0.01c3.358,0.14 2.044,16.241 1.081,16.674c-0.891,0.401 -9.169,0.267 -11.311,0.27Z" style="fill:#caaf6f;"/></g></g></svg>