<?xml version="1.0" encoding="UTF-8" standalone="no"?><!DOCTYPE svg PUBLIC "-//W3C//DTD SVG 1.1//EN" "http://www.w3.org/Graphics/SVG/1.1/DTD/svg11.dtd"><svg width="100%" height="100%" viewBox="0 0 307 307" version="1.1" xmlns="http://www.w3.org/2000/svg" xmlns:xlink="http://www.w3.org/1999/xlink" xml:space="preserve" xmlns:serif="http://www.serif.com/" style="fill-rule:evenodd;clip-rule:evenodd;stroke-linejoin:round;stroke-miterlimit:2;"><path d="M127.385,255.817l-26.669,-50.352l-50.607,-26.924l13.819,-13.743l44.048,7.49l38.919,-38.919l-95.727,-40.858l17.711,-17.609l116.437,19.97l39.812,-40.054c3.573,-3.581 7.954,-5.372 13.143,-5.372c5.189,0 9.57,1.791 13.143,5.372c3.59,3.581 5.385,7.954 5.385,13.117c0,5.164 -1.791,9.536 -5.372,13.117l-40.131,39.876l19.982,116.373l-17.788,17.788l-40.692,-95.727l-38.919,38.919l7.312,43.729l-13.807,13.807Z" style="fill:#caaf6f;fill-rule:nonzero;"/></svg>