<?xml version="1.0" encoding="UTF-8" standalone="no"?><!DOCTYPE svg PUBLIC "-//W3C//DTD SVG 1.1//EN" "http://www.w3.org/Graphics/SVG/1.1/DTD/svg11.dtd"><svg width="100%" height="100%" viewBox="0 0 1280 1280" version="1.1" xmlns="http://www.w3.org/2000/svg" xmlns:xlink="http://www.w3.org/1999/xlink" xml:space="preserve" xmlns:serif="http://www.serif.com/" style="fill-rule:evenodd;clip-rule:evenodd;stroke-linejoin:round;stroke-miterlimit:2;"><g><path d="M669.592,1236.571l-0.637,0.108l-3.775,1.862l-1.062,0.212l-0.746,-0.212l-3.775,-1.912c-0.567,-0.142 -0.992,-0.038 -1.275,0.321l-0.212,0.533l-0.904,22.754l0.267,1.062l0.533,0.692l5.529,3.933l0.796,0.212l0.638,-0.212l5.529,-3.933l0.638,-0.85l0.212,-0.904l-0.904,-22.704c-0.142,-0.567 -0.425,-0.888 -0.85,-0.958m14.038,-6.008l-0.746,0.108l-9.783,4.946l-0.533,0.533l-0.158,0.583l0.958,22.862l0.267,0.638l0.425,0.425l10.688,4.892c0.675,0.179 1.188,0.038 1.542,-0.425l0.212,-0.746l-1.808,-32.646c-0.179,-0.675 -0.533,-1.062 -1.062,-1.171m-38.017,0.108c-0.483,-0.292 -1.121,-0.15 -1.438,0.321l-0.321,0.746l-1.808,32.646c0.038,0.638 0.337,1.062 0.904,1.275l0.796,-0.108l10.687,-4.946l0.533,-0.425l0.158,-0.583l0.958,-22.862l-0.158,-0.638l-0.533,-0.533l-9.783,-4.892l0.004,0Z" style="fill:none;fill-rule:nonzero;"/><path d="M1077.916,723.27c-23.96,-18.435 -55.207,-24.658 -84.402,-16.809l-166.26,38.227c1.988,-8.398 2.992,-17 2.992,-25.63c0,-61.038 -50.226,-111.264 -111.264,-111.264c-0.004,0 -0.008,0 -0.012,0l-198.924,0c-33.729,-0.085 -66.128,13.33 -89.925,37.234l-89.885,89.925l-114.006,0c-34.879,0 -63.579,28.701 -63.579,63.579l0,158.949c0,34.879 28.701,63.579 63.579,63.579l413.267,0c2.599,-0.002 5.188,-0.322 7.709,-0.954l254.318,-63.579c1.621,-0.387 3.203,-0.919 4.729,-1.589l154.458,-65.725l1.748,-0.795c33.077,-16.529 54.058,-50.467 54.058,-87.444c0,-30.455 -14.233,-59.225 -38.442,-77.704l-0.159,0Zm-851.687,75.262l95.369,0l0,158.949l-95.369,0l0,-158.949Zm808.373,32.624l-151.001,64.295l-248.079,62.03l-250.344,0l0,-177.585l89.925,-89.885c11.878,-11.973 28.078,-18.691 44.943,-18.637l198.924,0c26.159,0 47.685,21.526 47.685,47.685c0,26.159 -21.526,47.685 -47.685,47.685l-111.264,0c-17.439,0 -31.79,14.35 -31.79,31.79c0,17.439 14.35,31.79 31.79,31.79l127.159,0c2.393,-0.006 4.778,-0.273 7.113,-0.795l266.239,-61.235l1.232,-0.318c2.977,-0.826 6.052,-1.245 9.141,-1.245c18.747,0 34.174,15.427 34.174,34.174c0,12.679 -7.056,24.357 -18.281,30.253l0.119,0Zm-220.263,-286.942c7.854,0.009 15.696,-0.629 23.445,-1.907c19.546,58.059 74.316,97.41 135.577,97.41c78.477,0 143.054,-64.577 143.054,-143.054c0,-78.477 -64.577,-143.054 -143.054,-143.054c-7.853,0 -15.692,0.647 -23.438,1.933c-19.539,-58.072 -74.315,-97.436 -135.585,-97.436c-78.477,0 -143.054,64.577 -143.054,143.054c0,78.477 64.577,143.054 143.054,143.054c0.001,0 0.001,-0 0.002,-0m238.423,-47.685c0,43.598 -35.876,79.474 -79.474,79.474c-43.598,0 -79.474,-35.876 -79.474,-79.474c0,-43.598 35.876,-79.474 79.474,-79.474c43.598,0 79.474,35.876 79.474,79.474m-238.423,-174.844c35.522,0.018 66.921,23.849 76.494,58.056c-32.906,23.153 -54.563,59.147 -59.606,99.065c-5.55,1.199 -11.21,1.812 -16.888,1.828c-43.598,0 -79.474,-35.876 -79.474,-79.474c0,-43.598 35.876,-79.474 79.474,-79.474" style="fill:#caaf6f;fill-rule:nonzero;"/></g></svg>